<svg aria-hidden="true" style="position: absolute; width: 0; height: 0; overflow: hidden;" version="1.1" xmlns="http://www.w3.org/2000/svg" xmlns:xlink="http://www.w3.org/1999/xlink">
     <defs>
          <symbol id="icon-basket" viewBox="0 0 32 32">
               <path stroke-linejoin="miter" stroke-linecap="butt" stroke-miterlimit="4" stroke-width="2" d="M5.114 31l-3.934-23.6h29.64l-3.934 23.6h-21.772z"></path>
               <path d="M6.534 7.466c0-5.228 4.238-9.466 9.466-9.466s9.466 4.238 9.466 9.466v0h-4c0-3.019-2.447-5.466-5.466-5.466s-5.466 2.447-5.466 5.466h-4zM23.466 12.8v0zM6.534 12.8v-5.334c0-5.228 4.238-9.466 9.466-9.466v0 4c-3.019 0-5.466 2.447-5.466 5.466v0 5.334h-4zM16-2c5.228 0 9.466 4.238 9.466 9.466v0 5.334h-4v-5.334c0-3.019-2.447-5.466-5.466-5.466v-4z"></path>
          </symbol>
          <symbol id="icon-youtube" viewBox="0 0 46 32">
               <path d="M35.929 0.444c-2.116-0.124-6.471-0.249-13.067-0.249h-0.871c-6.347 0-10.578 0.124-12.693 0.373-2.862 0.249-4.853 0.996-5.973 1.991-0.996 0.871-1.742 2.489-1.991 4.604-0.124 1.369-0.249 4.231-0.249 8.587v0.622c0 4.107 0.124 6.969 0.373 8.338 0.373 1.991 0.996 3.484 2.24 4.356 1.244 0.996 3.36 1.618 6.347 1.867 2.116 0.124 6.471 0.249 13.067 0.249h0.871c6.347 0 10.578-0.124 12.693-0.373 2.862-0.249 4.853-0.996 5.973-1.991 0.996-0.871 1.742-2.489 1.991-4.604 0.124-1.369 0.249-4.231 0.249-8.587v-0.622c0-4.107-0.124-6.969-0.373-8.338-0.373-1.991-0.996-3.484-2.24-4.356-1.244-0.996-3.36-1.618-6.347-1.867zM31.076 15.751l-13.689 8.213v-16.427l13.689 8.213z"></path>
          </symbol>
          <symbol id="icon-instagram" viewBox="0 0 32 32">
               <path d="M30.837 9.883c-0.018-1.323-0.271-2.582-0.72-3.743l0.025 0.074c-0.795-2.009-2.358-3.568-4.316-4.342l-0.052-0.018c-1.074-0.415-2.316-0.668-3.614-0.696l-0.012-0c-1.595-0.071-2.101-0.091-6.149-0.091-4.053 0-4.571 0-6.155 0.091-1.24 0.027-2.465 0.26-3.624 0.696-2.010 0.791-3.572 2.351-4.349 4.308l-0.018 0.052c-0.417 1.072-0.669 2.311-0.695 3.607l-0 0.011c-0.072 1.595-0.093 2.1-0.093 6.143 0 4.044 0 4.56 0.093 6.143 0.024 1.24 0.259 2.461 0.693 3.621 0.796 2.008 2.359 3.568 4.318 4.341l0.052 0.018c1.070 0.431 2.309 0.701 3.606 0.745l0.018 0c1.597 0.071 2.103 0.093 6.153 0.093s4.569 0 6.153-0.093c1.309-0.026 2.551-0.278 3.7-0.719l-0.075 0.025c2.009-0.793 3.571-2.352 4.349-4.308l0.018-0.052c0.436-1.16 0.671-2.381 0.695-3.621 0.072-1.593 0.093-2.099 0.093-6.144-0.003-4.043-0.003-4.556-0.096-6.14zM15.987 23.62c-0.002 0-0.005 0-0.008 0-4.228 0-7.656-3.427-7.659-7.654v-0c0.002-4.228 3.43-7.655 7.659-7.655 0.003 0 0.006 0 0.008 0h-0c4.233 0 7.667 3.427 7.667 7.655-0.005 4.228-3.433 7.653-7.661 7.653-0.002 0-0.004 0-0.006 0h0zM23.96 9.812c-0.986 0-1.785-0.799-1.785-1.785s0.799-1.785 1.785-1.785v0c0.986 0 1.785 0.799 1.785 1.785s-0.799 1.785-1.785 1.785v0z"></path>
          </symbol>
          <symbol id="icon-facebook" viewBox="0 0 12 32">
               <path d="M10.789 1.615h1.28v4.8h-1.6c-0.64 0-1.28 0-1.6 0.32s-0.32 0.64-0.32 1.387v1.707h3.52v4.053h-3.52v17.6h-5.44v-17.707h-2.88v-4.053h2.88v-1.387c0-2.347 0.32-4.053 0.96-4.8 0.96-1.387 2.88-2.027 5.76-2.027 0.32 0.107 0.64 0.107 0.96 0.107z"></path>
          </symbol>
          <symbol id="icon-arrow" viewBox="0 0 30 32">
               <path d="M29.867 4.587l-4.425-4.42v22.123l-22.123-22.125-3.319 3.317 22.123 22.123h-22.123l4.425 4.427h25.442v-25.444z"></path>
          </symbol>
          <symbol id="icon-shopping-cart" viewBox="0 0 32 32">
               <path stroke-linejoin="round" stroke-linecap="round" stroke-miterlimit="4" stroke-width="2.6667" d="M12 29.333c0.736 0 1.333-0.597 1.333-1.333s-0.597-1.333-1.333-1.333v0c-0.736 0-1.333 0.597-1.333 1.333s0.597 1.333 1.333 1.333v0zM26.667 29.333c0.736 0 1.333-0.597 1.333-1.333s-0.597-1.333-1.333-1.333v0c-0.736 0-1.333 0.597-1.333 1.333s0.597 1.333 1.333 1.333v0z"></path>
               <path stroke-linejoin="round" stroke-linecap="round" stroke-miterlimit="4" stroke-width="2.4" d="M1.333 1.333h5.333l3.573 17.853c0.251 1.233 1.327 2.147 2.616 2.147 0.018 0 0.036-0 0.054-0.001l-0.003 0h12.96c0.015 0 0.033 0 0.051 0 1.289 0 2.364-0.914 2.613-2.13l0.003-0.017 2.133-11.187h-22.667"></path>
          </symbol>
          <symbol id="icon-logo" viewBox="0 0 32 32">
               <path d="M29.082 0.314h-4.010c-0.006-0-0.013-0-0.020-0-1.218 0-2.206 0.98-2.22 2.195v3.929c0.014 1.216 1.002 2.196 2.22 2.196 0.007 0 0.014-0 0.021-0h4.009c0.006 0 0.013 0 0.020 0 1.218 0 2.206-0.98 2.22-2.195v-3.929c-0.014-1.216-1.002-2.196-2.22-2.196-0.007 0-0.014 0-0.021 0h0.001zM6.73 23.040h-4.318c-1.332 0-2.412 0.984-2.412 2.196v3.928c0 1.214 1.080 2.196 2.412 2.196h4.32c1.33 0 2.41-0.982 2.41-2.196v-3.928c0-1.214-1.080-2.196-2.412-2.196zM6.25 11.58h-4.010c-1.238 0-2.24 0.986-2.24 2.2v3.928c0.013 1.216 1.002 2.196 2.22 2.196 0.007 0 0.014-0 0.021-0h4.009c0.006 0 0.013 0 0.020 0 1.218 0 2.206-0.98 2.22-2.195v-3.929c0-1.214-1.004-2.196-2.24-2.196zM17.766 22.98h-4.010c-1.236 0-2.24 0.98-2.24 2.194v3.928c0.014 1.216 1.002 2.196 2.22 2.196 0.007 0 0.014-0 0.021-0h4.009c0.006 0 0.013 0 0.020 0 1.218 0 2.206-0.98 2.22-2.195v-3.929c-0.014-1.216-1.002-2.196-2.22-2.196-0.007 0-0.014 0-0.021 0h0.001zM6.25 0.086h-4.010c-1.238 0-2.24 0.984-2.24 2.196v3.928c0.013 1.216 1.002 2.196 2.22 2.196 0.007 0 0.014-0 0.021-0h4.009c0.006 0 0.013 0 0.020 0 1.218 0 2.206-0.98 2.22-2.195v-3.929c0-1.212-1.004-2.196-2.24-2.196zM18.076 11.698h-4.010c-1.236 0-2.24 0.982-2.24 2.194v3.93c0.014 1.216 1.002 2.196 2.22 2.196 0.007 0 0.014-0 0.021-0h4.009c1.238 0 2.24-0.984 2.24-2.196v-3.93c0-1.212-1.002-2.194-2.24-2.194zM29.334 22.98h-4.010c-1.238 0-2.24 0.98-2.24 2.194v3.928c0.014 1.216 1.002 2.196 2.22 2.196 0.007 0 0.014-0 0.021-0h4.009c0.006 0 0.013 0 0.020 0 1.218 0 2.206-0.98 2.22-2.195v-3.929c0-1.214-1.004-2.196-2.24-2.196zM17.59 0.224h-4.008c-1.238 0-2.24 0.982-2.24 2.196v3.928c0.014 1.216 1.002 2.196 2.22 2.196 0.007 0 0.014-0 0.021-0h4.007c0.006 0 0.013 0 0.020 0 1.218 0 2.206-0.98 2.22-2.195v-3.929c0-1.214-1.002-2.196-2.24-2.196zM29.044 11.926h-4.010c-1.236 0-2.24 0.982-2.24 2.196v3.928c0.014 1.216 1.002 2.196 2.22 2.196 0.007 0 0.014-0 0.021-0h4.009c0.006 0 0.013 0 0.020 0 1.218 0 2.206-0.98 2.22-2.195v-3.929c0-1.214-1.004-2.196-2.24-2.196z"></path>
          </symbol>
          <symbol id="icon-menu" viewBox="0 0 46 32">
               <path d="M0 2.274c0-1.257 1.019-2.274 2.274-2.274h18.309c1.256 0 2.274 1.018 2.274 2.274s-1.018 2.274-2.274 2.274v0h-18.309c-1.256 0-2.274-1.018-2.274-2.274v0zM0 16c0-1.257 1.019-2.274 2.274-2.274h41.166c1.256 0 2.274 1.018 2.274 2.274s-1.018 2.274-2.274 2.274h-41.166c-1.256 0-2.274-1.018-2.274-2.274v0zM2.274 27.451c-1.256 0-2.274 1.018-2.274 2.274s1.018 2.274 2.274 2.274h27.451c1.256 0 2.274-1.018 2.274-2.274s-1.018-2.274-2.274-2.274h-27.451z"></path>
          </symbol>
          <symbol id="icon-close" viewBox="0 0 32 32">
               <path stroke-linejoin="round" stroke-linecap="round" stroke-miterlimit="4" stroke-width="3.4286" d="M24 8l-16 16M8 8l16 16"></path>
          </symbol>
          <symbol id="icon-check" viewBox="0 0 32 32">
               <path d="M26.152 1.404c0.586-0.829 1.541-1.363 2.62-1.363 1.767 0 3.2 1.433 3.2 3.2 0 0.653-0.196 1.26-0.531 1.767l0.007-0.012-17.356 25.6c-0.584 0.852-1.551 1.403-2.648 1.403s-2.064-0.552-2.641-1.392l-0.007-0.011-8.244-12.16c-0.363-0.512-0.58-1.149-0.58-1.837 0-1.767 1.433-3.2 3.2-3.2 1.114 0 2.096 0.57 2.669 1.433l0.007 0.012 5.596 8.252 14.708-21.692z"></path>
          </symbol>
          <symbol id="icon-oval" viewBox="0 0 85 32">
               <path d="M42.553 22.468c18.331 0 33.191-2.896 33.191-6.468s-14.86-6.468-33.191-6.468-33.191 2.896-33.191 6.468 14.86 6.468 33.191 6.468z"></path>
          </symbol>
     </defs>
</svg>
